PathFileType	4	(X/Y/Z)	45_2_10_p0_0-122_filt_butterworth.trc
DataRate	CameraRate	NumFrames	NumMarkers	Units	OrigDataRate	OrigDataStartFrame	OrigNumFrames
49.0	49.0	6	27	m	49.0	106	122
Frame#	Time	RHip			RKnee			RAnkle			RBigToe			RSmallToe			RHeel			LHip			LKnee			LAnkle			LBigToe			LSmallToe			LHeel			Neck			Head			Nose			RShoulder			RElbow			RWrist			RThumb			RIndex			RPinky			LShoulder			LElbow			LWrist			LThumb			LIndex			LPinky			
		X1	Y1	Z1	X2	Y2	Z2	X3	Y3	Z3	X4	Y4	Z4	X5	Y5	Z5	X6	Y6	Z6	X7	Y7	Z7	X8	Y8	Z8	X9	Y9	Z9	X10	Y10	Z10	X11	Y11	Z11	X12	Y12	Z12	X13	Y13	Z13	X14	Y14	Z14	X15	Y15	Z15	X16	Y16	Z16	X17	Y17	Z17	X18	Y18	Z18	X19	Y19	Z19	X20	Y20	Z20	X21	Y21	Z21	X22	Y22	Z22	X23	Y23	Z23	X24	Y24	Z24	X25	Y25	Z25	X26	Y26	Z26	X27	Y27	Z27	
106	2.163265306122449	0.5107035278627561	0.6481842490956156	0.8140910388793192	0.5336557919464054	0.1851795047833526	0.7697206601360966	0.585655035116913	-0.2939554867426415	0.7687951591145784	0.592500859684602	-0.26261652693198806	0.5694371081200356	0.6530173785931415	-0.2788637123293655	0.6089915850736793	0.5716624042920879	-0.4089325881099968	0.8530889940842065	0.3021523888003991	0.6176262730656826	0.822484854707942	0.35112104299478175	0.13740944091675822	0.8241305142495605	0.4023115977535789	-0.3239085264145373	0.7738559431327249	0.43684997770205575	-0.2780554485456959	0.5721444262162361	0.379556184502456	-0.306689533942267	0.614805220999848	0.4279791083143732	-0.38429233896448783	0.8053982578232547	0.3505591562040832	1.2204402880044132	0.8124838103274575	0.2959034533329976	1.4444285868822127	0.8819803510187613	0.338443364189963	1.3574376026371056	0.7738541682769318	0.5297603350827312	1.1358146511984768	0.8511276016075618	0.5883246773264613	0.8577755704871732	0.8118540817065054	0.5159015766242491	0.6132774378055392	0.6927148875365219	0.43052343005059823	0.5165314413700135	0.6823281263250837	0.4257173662012287	0.48149414032627086	0.718900073909738	0.45341565939193856	0.4865504599143111	0.7047009939969984	0.21634580054437721	1.0887128701800215	0.8201707876094257	0.22651933217986547	0.812166681577279	0.7866849046866273	0.3540556838509944	0.6167371651016782	0.6897656125209497	0.4478092048800083	0.5464630841891449	0.6712414136194991	0.4498060445332108	0.5308460623391865	0.6640694096982654	0.43025069059937315	0.5076164706686856	0.6868386231469169	
107	2.183673469387755	0.5109295655345761	0.6480756460524397	0.813983950448418	0.5334567234951977	0.1863779385743482	0.7679982013208326	0.5851178816398456	-0.29465872217258854	0.7696452291563449	0.593508252213677	-0.2643859998565756	0.5717679532270481	0.6528493876664738	-0.2790158513703995	0.6085053400939074	0.5715776460472355	-0.40892605200028126	0.853219326056747	0.302238356404156	0.6166107817177175	0.8247122804722549	0.35127237930185734	0.13441779220861633	0.8250783800539649	0.4021664336320037	-0.32371497779609637	0.7738667588176231	0.4368168480687179	-0.2778161597101568	0.5723542312743993	0.3793730213794352	-0.3072578697834043	0.6155245594535246	0.4280752966657962	-0.38345541047112064	0.8043723977207773	0.35230721999083325	1.2212897530884872	0.8094536836001676	0.2964159755266516	1.4430051428726192	0.881781626041648	0.3384260190142504	1.3578193754277794	0.7739601121572598	0.5313232008927212	1.1358793830908551	0.8487096293546317	0.5907426210781632	0.8574972112832514	0.8115192177275155	0.5144429862690028	0.6106621653948874	0.7020761237830052	0.42876870642865844	0.5152010930600823	0.6908137350875092	0.42422608658335337	0.48494819414740453	0.7190633036791294	0.4510332675554616	0.48726951329886714	0.7105981976404128	0.21819516234508377	1.0884165820637555	0.8229083948895364	0.2233304450502856	0.8113100015090506	0.7901731594616159	0.35327272270252574	0.6163152518472468	0.6939976918006341	0.4468856549311442	0.5468967734812754	0.6748048919140799	0.44908972739628034	0.5321933342740439	0.6678469285291369	0.42930138212400215	0.5074943503431535	0.6912986394360006	
108	2.204081632653061	0.5113543260765911	0.6479531234292165	0.8137686233330912	0.533641936164475	0.1867697806638518	0.7667024345487039	0.5848018469866451	-0.29581499192799565	0.7709070608051258	0.5942240167653716	-0.2673536600255733	0.5753231724992799	0.6523412661586188	-0.2794918350457851	0.6083904281228144	0.571761222507153	-0.40930842612162865	0.8535462724672317	0.30232940908236333	0.6159646053403619	0.8268715476587682	0.3517105108503666	0.13141077898282894	0.8255199129692998	0.401999943103103	-0.3239876164916921	0.7743115111812412	0.43670014483541797	-0.2770471137208387	0.5722903504921165	0.3792282875042973	-0.30771364057266576	0.6161461044045877	0.4282015865430099	-0.3832528561970522	0.8041569438352698	0.35444536233033763	1.2218867536830558	0.8059031851226648	0.2973438757989017	1.4423394988447804	0.8819658427470577	0.3384806495547797	1.3580066049674158	0.7749706456721013	0.5327861779452286	1.1358760020303411	0.8464033743643228	0.5924510550323878	0.8571970589335929	0.8115479843602603	0.5122449977462027	0.6085436817894458	0.7106368647120166	0.42688221295508744	0.5150493625331991	0.697247954655157	0.42254403967045406	0.48886219712851187	0.7186150940552147	0.4478714102740028	0.488544562158099	0.7154419983842327	0.22016120103086512	1.0888463272381164	0.8247493294418876	0.22025582370289498	0.810481928913594	0.7940076395714677	0.3521634614215001	0.6157975001619873	0.697964223664829	0.4459270750410099	0.5485032736209052	0.6768632625370476	0.44825737618431133	0.5336541177251312	0.6713467832333504	0.42766722627950243	0.5086132470040732	0.694641774309857	
109	2.224489795918368	0.5120388382411959	0.6478350818204395	0.813572435309976	0.5340936467200497	0.18634144234908084	0.7662382728737596	0.5847822652137303	-0.2973427449210303	0.7724418651231226	0.5947353741200776	-0.27107531796586504	0.5795366440028046	0.6516897403848254	-0.27984014794450174	0.6084196550389656	0.5722433603394664	-0.4097887680023044	0.8539769296004763	0.3025321306007883	0.6155002489903015	0.8287623491090363	0.3522574733921125	0.12918367189284585	0.8254251172135982	0.40185126819623446	-0.3245543323150703	0.7750041280684085	0.436464784554753	-0.2757306521821279	0.5717340113563656	0.37919986398910877	-0.30768521368058	0.6162008562751916	0.4283179337464016	-0.38377861039932726	0.8049180589059456	0.35657040173413007	1.2220501320525499	0.8026299197018034	0.2986646451106887	1.4425365262929386	0.882416570106303	0.33862892236764874	1.3577696622958775	0.7768689805348453	0.5341829119376216	1.1359028488462601	0.8442316180777534	0.5932779888304336	0.8568844733003063	0.8118792304377636	0.5100598876860432	0.6070371172752194	0.7181618234089435	0.42547516910102184	0.5149801141919035	0.7027311357338826	0.4214707995579447	0.4925482262388986	0.7184586988463759	0.4444302236021383	0.4906441628570907	0.7187666167326869	0.22195985266811452	1.0898624701481063	0.8256278256032014	0.21757796484337638	0.809529823497492	0.798536140418179	0.3506981324526064	0.6149021825807159	0.7014535018806787	0.44510087426166384	0.5507287777884033	0.6780117751018623	0.44732373634678096	0.5353344706992087	0.6741009934512392	0.4257213055910016	0.5106130298934185	0.6967822553685292	
110	2.2448979591836733	0.5130482583337405	0.64706379033888	0.81395176739002	0.5349629238053752	0.18521981362796175	0.7670490487915953	0.5848969806851165	-0.2983718531429554	0.772719924137845	0.5950624571033188	-0.27483611195796953	0.5836534028051327	0.6512650078944167	-0.27999387620854843	0.6085560685000516	0.5725557611356576	-0.41056764720752076	0.8545769672322243	0.30283973013197313	0.6138559945945421	0.830160052446243	0.35268659426905546	0.12790645529793	0.825189529288994	0.4017244251586155	-0.324989567400592	0.7753698443098228	0.4361488292850913	-0.2742085245308986	0.5710743868498083	0.3792459102824941	-0.3074910255728457	0.6160302320366903	0.4282500390163966	-0.3840982824009581	0.8055411256651488	0.3584993912351026	1.2217832033924465	0.8000843788787416	0.30049119218976444	1.4435277743847392	0.8826599867762437	0.3390675876466639	1.357195987715156	0.779261039029103	0.535773173021484	1.136238170442863	0.8415638670343157	0.5934633853699751	0.8567054128578429	0.812024757422139	0.5083730985004351	0.6059563071120048	0.7242952093380032	0.42424765527043434	0.513959977057138	0.7078622595041071	0.42050564721413786	0.4950247004406966	0.7195713132220843	0.44156597451996493	0.4933333885159644	0.7204377619032971	0.22325069292140498	1.091019718810319	0.825877359691279	0.21531814846065844	0.8087014141740783	0.8031324812042764	0.34894835750423137	0.6136696520405447	0.7040823388628864	0.44432711292425986	0.5532216738189641	0.6779715199720753	0.4462680509735496	0.5370685473628127	0.6752749661553437	0.42375517292844517	0.5125232537491221	0.6981766197430455	
111	2.26530612244898	0.5141153298633538	0.6463829975398584	0.814646353353121	0.5360464035533321	0.1837211014182351	0.7685660328192434	0.5851841990108839	-0.29934354541739705	0.7728803320040708	0.5950910415263743	-0.27810979668945446	0.5872708588825296	0.6512861154546223	-0.28015006727161557	0.6088413328926847	0.5729189115309932	-0.41145021796246367	0.8552048269326169	0.30314332542282846	0.6123985406465577	0.8316793956109931	0.35316909737102115	0.1270741169625489	0.8248006441527881	0.4016486952358456	-0.32539975819503664	0.7756532674017322	0.4358586426307144	-0.2731144586432258	0.5711200046116287	0.3792506199111708	-0.30745041093451053	0.615978745025084	0.42819119505478076	-0.3845697074008139	0.8062695719212142	0.3602985890444803	1.2213588126334307	0.7981226203247088	0.3027953101970465	1.4450113297416007	0.8823115802200238	0.3400427957804705	1.356524842947844	0.7814521005637569	0.5379199748779093	1.1371865975555893	0.8376467657431508	0.5936481630709142	0.8570266552094578	0.8113770397062667	0.5071561793829273	0.6050654865694997	0.7285117552649418	0.4225742544698196	0.5118559551917666	0.7126063240266987	0.4188431653518268	0.49576557433236174	0.7224572353653161	0.4399221386411048	0.49623985276367255	0.7203828602098594	0.22395560116211882	1.0919081242951103	0.8259860975554882	0.21372043730239795	0.8085347659265648	0.8065550199197269	0.34719002931814946	0.6127429406505565	0.7051454850548371	0.4435375139945186	0.5555266228943498	0.676878872320986	0.4452600836874798	0.5385705557052707	0.6747366372115078	0.42206074804225396	0.513544457089423	0.6995972099166805	
